<svg width="22" height="21" viewBox="0 0 22 21" fill="none" xmlns="http://www.w3.org/2000/svg">
<path d="M20.1756 2.20956C18.9981 1.01731 17.4296 0.357569 15.7635 0.357569C14.0973 0.357569 12.5242 1.01731 11.3467 2.21427C11.1598 2.40356 10.8542 2.40356 10.6672 2.21427L10.6579 2.20485C9.47577 1.00789 7.90733 0.348145 6.23651 0.348145C4.57034 0.348145 3.00655 1.00317 1.82906 2.20013C0.646921 3.39709 0 4.98519 0 6.67224C0 8.35929 0.651575 9.94739 1.83372 11.1396L10.3368 19.7493C10.5136 19.9283 10.7556 20.032 11.0116 20.032C11.2629 20.032 11.505 19.9283 11.6865 19.7493L20.1663 11.1538C21.3484 9.95681 21.9953 8.36872 22 6.68167C22.0046 4.99461 21.3531 3.40652 20.1756 2.20956Z" fill="#E1E1E1"/>
</svg>
